# xmcd
#
# Track frame offsets: 
#        150
#        13027
#        24547
#        35797
#        48492
#        61075
#        74632
#        87980
#        100697
#        114107
#        128712
#        141887
#        158420
#        175845
#        190435
#        204447
#        221795
#        239927
#        257790
#        276905
#
# Disc length: 3930 seconds
#
# Revision: 8
# Processed by: cddbd v1.5.2PL0 Copyright (c) Steve Scherf et al.
# Submitted via: ExactAudioCopyFreeDBPlugin 1.0
#
DISCID=290f5814
DTITLE=Marvin Gaye - The Marvin Gaye Collection [box set]
DYEAR=1990
DGENRE=Soul
TTITLE0=Stubborn Kind of Fellow
TTITLE1=Hitch Hike
TTITLE2=Pride and Joy
TTITLE3=Can I Get a Witness
TTITLE4=You're a Wonderful One
TTITLE5=Try it Baby
TTITLE6=How Sweet it Is (To Be Loved By You)
TTITLE7=I'll Be Doggone
TTITLE8=Ain't That Peculiar
TTITLE9=I Heard it Through the Grapevine
TTITLE10=Too Busy Thinking About My Baby
TTITLE11=That's the Way Love Is
TTITLE12=What's Going On
TTITLE13=Mercy. Mercy Me (The Ecology)
TTITLE14=Innner City Blues (Make Me Wanna Holler)
TTITLE15=Trouble Man
TTITLE16=Let's Get it On
TTITLE17=I Want You
TTITLE18=Got to Give it Up
TTITLE19=Sexual Healing
EXTD=YEAR: 1990
EXTT0=
EXTT1=
EXTT2=
EXTT3=
EXTT4=
EXTT5=
EXTT6=
EXTT7=
EXTT8=
EXTT9=
EXTT10=
EXTT11=
EXTT12=
EXTT13=
EXTT14=
EXTT15=
EXTT16=
EXTT17=
EXTT18=
EXTT19=
PLAYORDER=
